<?xml version="1.0" encoding="UTF-8"?>
<svg width="260px" height="60px" viewBox="0 0 260 60" version="1.1" xmlns="http://www.w3.org/2000/svg" xmlns:xlink="http://www.w3.org/1999/xlink">
    <!-- Generator: Sketch 52.4 (67378) - http://www.bohemiancoding.com/sketch -->
    <title>Artboard</title>
    <desc>Created with Sketch.</desc>
    <defs>
        <linearGradient x1="-28.6730963%" y1="50%" x2="78.6022646%" y2="51.5133932%" id="linearGradient-1">
            <stop stop-color="#F5E4A8" offset="0%"></stop>
            <stop stop-color="#D4AC4F" offset="100%"></stop>
        </linearGradient>
        <linearGradient x1="2.73236963%" y1="0%" x2="93.5389349%" y2="97.3833436%" id="linearGradient-2">
            <stop stop-color="#F5E4A8" offset="0%"></stop>
            <stop stop-color="#D4AC4F" offset="100%"></stop>
        </linearGradient>
    </defs>
    <g id="Artboard" stroke="none" stroke-width="1" fill="none" fill-rule="evenodd">
        <path d="M85.6736292,48 C79.9190601,48 76.1488251,44.1818182 76,38.4297521 L79.075718,38.4297521 C79.2245431,42.7438017 81.7049608,45.0247934 85.5744125,45.0247934 C89.7911227,45.0247934 91.8746736,42.3966942 91.8746736,38.6280992 C91.8746736,30.5950413 76.4960836,30.5454545 76.4960836,20.4793388 C76.4960836,15.7190083 80.1174935,12 85.4751958,12 C90.9321149,12 94.305483,15.8677686 94.5535248,21.322314 L91.4778068,21.322314 C91.2793734,16.9586777 88.8981723,14.9752066 85.5744125,14.9752066 C81.8041775,14.9752066 79.6214099,17.1570248 79.6214099,20.4793388 C79.6214099,28.5123967 95,28.214876 95,38.6280992 C95,43.338843 91.7754569,48 85.6736292,48 Z M102.127596,45.15 L116,45.15 L116,48 L99,48 L99,13 L115.445104,13 L115.445104,15.85 L102.127596,15.85 L102.127596,28.8 L114.587537,28.8 L114.587537,31.65 L102.127596,31.65 L102.127596,45.15 Z M136,15.85 L123.139241,15.85 L123.139241,29.3 L135.139241,29.3 L135.139241,32.15 L123.139241,32.15 L123.139241,48 L120,48 L120,13 L136,13 L136,15.85 Z M149,48 C142.731343,48 139,43.5867769 139,36.5950413 L139,23.4049587 C139,16.4132231 142.731343,12 149,12 C155.268657,12 159,16.4132231 159,23.4049587 L159,36.5950413 C159,43.5867769 155.268657,48 149,48 Z M149,45 C153.615942,45 156,41.9306931 156,36.5841584 L156,23.4158416 C156,18.0693069 153.615942,15 149,15 C144.384058,15 142,18.0693069 142,23.4158416 L142,36.5841584 C142,41.9306931 144.384058,45 149,45 Z M179.380952,48 L170.986772,34.35 L167.116402,34.35 L167.116402,48 L164,48 L164,13 L172.042328,13 C178.526455,13 182.095238,16.75 182.095238,23.25 C182.095238,29.35 179.179894,33.25 174.354497,34.15 L183,48 L179.380952,48 Z M167,16 L167,31 L171.953191,31 C176.6,31 179,28.2508039 179,23.2829582 C179,18.4598071 176.6,16 172.004255,16 L167,16 Z M207.686747,13 L211,13 L211,48 L207.88755,48 L207.88755,29.5 C207.88755,25.8 207.987952,22.7 208.188755,19.6 L207.987952,19.55 C207.084337,22.05 205.678715,25.4 204.373494,28.75 L200.056225,39.75 L196.943775,39.75 L192.626506,28.75 C191.321285,25.4 189.915663,22.05 189.012048,19.55 L188.811245,19.6 C189.012048,22.7 189.11245,25.8 189.11245,29.5 L189.11245,48 L186,48 L186,13 L189.313253,13 L195.588353,28.1 C196.491968,30.35 197.746988,33.95 198.399598,35.9 L198.600402,35.9 C199.253012,33.95 200.508032,30.35 201.411647,28.1 L207.686747,13 Z M232.669725,48 L230.600917,39.8 L219.399083,39.8 L217.330275,48 L214,48 L223.284404,13 L226.715596,13 L236,48 L232.669725,48 Z M220,37 L230,37 L226.28866,22.5 C225.721649,20.35 225.206186,17.85 225.051546,17 L224.948454,17 C224.793814,17.85 224.278351,20.35 223.71134,22.5 L220,37 Z" id="SEFORMA" fill="#1B1B1B"></path>
        <g id="Group-2" transform="translate(10.000000, 8.000000)">
            <g id="Group">
                <rect id="Rectangle-Copy" stroke="#1B1B1B" x="0.5" y="7.63368984" width="36.8663102" height="36.8663102"></rect>
                <rect id="Rectangle" fill="#1B1B1B" x="7.13368984" y="3.55271368e-14" width="37.8663102" height="37.8663102"></rect>
                <path d="M21.3293655,28.3957219 C18.152714,28.3957219 16.0714596,26.2824502 15.9893048,23.09882 L17.6871703,23.09882 C17.769325,25.4865426 19.1385714,26.7490167 21.2745956,26.7490167 C23.6023144,26.7490167 24.7524813,25.294427 24.7524813,23.2086003 C24.7524813,18.7624961 16.2631541,18.735051 16.2631541,13.1636982 C16.2631541,10.5289698 18.2622537,8.47058824 21.2198258,8.47058824 C24.2321677,8.47058824 26.0943427,10.6113051 26.2312673,13.6302647 L24.5334019,13.6302647 C24.4238622,11.215097 23.1093857,10.1172935 21.2745956,10.1172935 C19.1933412,10.1172935 17.9884044,11.3248774 17.9884044,13.1636982 C17.9884044,17.6098024 26.4777317,17.4451319 26.4777317,23.2086003 C26.4777317,25.8158837 24.6977114,28.3957219 21.3293655,28.3957219 Z M37.144385,10.3917444 L30.1886137,10.3917444 L30.1886137,17.774473 L36.6788413,17.774473 L36.6788413,19.338843 L30.1886137,19.338843 L30.1886137,28.0389358 L28.4907483,28.0389358 L28.4907483,8.82737438 L37.144385,8.82737438 L37.144385,10.3917444 Z" id="SF" fill="url(#linearGradient-1)"></path>
            </g>
            <rect id="Rectangle" fill="#1B1B1B" x="2" y="14" width="4" height="4"></rect>
            <rect id="Rectangle-Copy-12" fill="#1B1B1B" x="2" y="9" width="4" height="4"></rect>
            <rect id="Rectangle-Copy-2" fill="#1B1B1B" x="2" y="19" width="4" height="4"></rect>
            <rect id="Rectangle-Copy-4" fill="#1B1B1B" x="2" y="24" width="4" height="4"></rect>
            <rect id="Rectangle-Copy-3" fill="#1B1B1B" x="2" y="29" width="4" height="4"></rect>
            <rect id="Rectangle-Copy-6" fill="#1B1B1B" x="2" y="34" width="4" height="4"></rect>
            <rect id="Rectangle-Copy-5" fill="#1B1B1B" x="2" y="39" width="4" height="4"></rect>
            <rect id="Rectangle-Copy-7" fill="#1B1B1B" x="7" y="39" width="4" height="4"></rect>
            <rect id="Rectangle-Copy-8" fill="#1B1B1B" x="12" y="39" width="4" height="4"></rect>
            <rect id="Rectangle-Copy-9" fill="#1B1B1B" x="17" y="39" width="4" height="4"></rect>
            <rect id="Rectangle-Copy-10" fill="#1B1B1B" x="22" y="39" width="4" height="4"></rect>
            <rect id="Rectangle-Copy-11" fill="#1B1B1B" x="27" y="39" width="4" height="4"></rect>
            <rect id="Rectangle-Copy-13" fill="#1B1B1B" x="32" y="39" width="4" height="4"></rect>
        </g>
        <circle id="Oval" fill="url(#linearGradient-2)" opacity="0.6" cx="21.5" cy="12.5" r="1.5"></circle>
    </g>
</svg>